<?xml version="1.0" encoding="utf-8"?>
<!-- Generator: Adobe Illustrator 21.0.0, SVG Export Plug-In . SVG Version: 6.00 Build 0)  -->
<svg version="1.1" id="Layer_1" xmlns="http://www.w3.org/2000/svg" xmlns:xlink="http://www.w3.org/1999/xlink" x="0px" y="0px"
	 viewBox="0 0 1920 1080" style="enable-background:new 0 0 1920 1080;" xml:space="preserve">
<style type="text/css">
	.st0{fill:none;stroke:#F2F2F2;stroke-miterlimit:10;}
	.st1{fill:#FFFF00;}
	.st2{fill:#66FF66;}
	.st3{fill:#3FA9F5;}
	.st4{fill:#FF6666;}
	.st5{fill:#FDF57A;stroke:#FCEE21;stroke-miterlimit:10;}
	.st6{fill:none;stroke:#FFFFFF;stroke-width:2;stroke-miterlimit:10;}
	.st7{fill:#FFFFFF;stroke:#FFFFFF;stroke-width:2;stroke-miterlimit:10;}
	.st8{fill:none;}
	.st9{fill:#FFFFFF;}
	.st10{font-family:'MyriadPro-Regular';}
	.st11{font-size:36px;}
</style>
<path class="st0" d="M140.5,669.6C421.7,255,421.7,255,421.7,255L629,635.5L898.8,255l213,369.2l267-369.2l269.8,340.8L1887.2,255
	l-525.4,357.9L1066.4,255L816.5,621.3L580.7,255L328,641.2L203,425.4l298.2,170.4l105.1-153.4L109.3,255l363.5,275.5l247.1-298.2
	l227.2,352.2L614.8,502l-210.2-82.4l93.7-170.4l230,122.1l-19.9,249.9L313.8,243.6l122.1,426l215.8-139.2l130.6-298.2L810.8,485
	L754,621.3l207.3-125l255.6,119.3l329.5-363.5l-5.7,357.9L1251,232.2l-232.9,374.9L873.3,382.8l125-150.5l82.4,173.2L1060.7,610
	l107.9-159l142,167.6l5.7-210.2l-480,90.9l309.6-255.6l332.3,207.3l184.6-193.1L1802,493.5c0,0-215.8,110.8-213,107.9
	c2.8-2.8-213-96.6-213-96.6l264.1-139.2l-48.3-133.5l181.8,17l-315.3,374.9l-352.2-249.9l144.8-8.5l391.9,133.5l102.2,96.6
	l90.9-193.1l-329.5-71L1205.5,556l-235.7,48.3l62.5-196L822.1,232.2L640.4,431l-96.6,238.6L322.3,550.3l-79.5,119.3l11.4-278.3
	L72.3,450.9l235.7,68.2L140.5,669.6z"/>
<circle class="st1" cx="709.9" cy="622.7" r="22.7"/>
<circle class="st1" cx="1028" cy="418.3" r="22.7"/>
<circle class="st2" cx="842" cy="499.2" r="15.6"/>
<circle class="st2" cx="1251" cy="371.4" r="15.6"/>
<circle class="st2" cx="1482.5" cy="449.5" r="25.6"/>
<circle class="st2" cx="496.9" cy="247.9" r="25.6"/>
<circle class="st2" cx="408.9" cy="418.3" r="25.6"/>
<circle class="st2" cx="1016.7" cy="597.2" r="25.6"/>
<circle class="st2" cx="1760.8" cy="250.7" r="25.6"/>
<circle class="st1" cx="143.3" cy="669.6" r="29.8"/>
<circle class="st1" cx="1455.5" cy="624.2" r="27"/>
<circle class="st1" cx="781" cy="228" r="22.7"/>
<circle class="st1" cx="1101.9" cy="370" r="14.2"/>
<circle class="st1" cx="1800.6" cy="494.9" r="14.2"/>
<circle class="st1" cx="471.4" cy="529" r="14.2"/>
<circle class="st1" cx="1312.1" cy="617.1" r="14.2"/>
<circle class="st1" cx="1002.5" cy="233.7" r="25.6"/>
<circle class="st1" cx="319.4" cy="246.4" r="21.3"/>
<circle class="st1" cx="1887.2" cy="263.5" r="29.8"/>
<circle class="st3" cx="874.7" cy="381.3" r="22.7"/>
<circle class="st3" cx="306.7" cy="520.5" r="22.7"/>
<circle class="st3" cx="732.7" cy="370" r="22.7"/>
<circle class="st3" cx="1374.5" cy="509.1" r="22.7"/>
<circle class="st3" cx="423.1" cy="253.5" r="22.7"/>
<circle class="st3" cx="1249.6" cy="233.7" r="22.7"/>
<circle class="st3" cx="72.3" cy="450.9" r="38.3"/>
<circle class="st3" cx="711.4" cy="232.2" r="38.3"/>
<circle class="st3" cx="1543.5" cy="260.6" r="38.3"/>
<circle class="st3" cx="1747.5" cy="602.6" r="38.3"/>
<circle class="st3" cx="1838.9" cy="402.6" r="15.6"/>
<circle class="st3" cx="1060.7" cy="544.6" r="15.6"/>
<circle class="st3" cx="444.4" cy="666.8" r="15.6"/>
<circle class="st4" cx="542.4" cy="668.2" r="36.9"/>
<circle class="st4" cx="113.5" cy="259.2" r="36.9"/>
<circle class="st4" cx="815" cy="619.9" r="36.9"/>
<circle class="st4" cx="1644.3" cy="497.8" r="36.9"/>
<circle class="st4" cx="329.4" cy="648.3" r="14.2"/>
<circle class="st4" cx="582.1" cy="253.5" r="14.2"/>
<circle class="st4" cx="1170" cy="449.5" r="22.7"/>
<circle class="st4" cx="596.3" cy="441" r="22.7"/>
<circle class="st4" cx="1388.7" cy="250.7" r="22.7"/>
<path class="st5" d="M687.5,830.5"/>
<line class="st6" x1="1040.2" y1="631.7" x2="1191.8" y2="732.3"/>
<line class="st6" x1="989.6" y1="108.2" x2="993.5" y2="199.1"/>
<line class="st6" x1="1138" y1="170" x2="1108.6" y2="338.4"/>
<line class="st6" x1="712.3" y1="406.2" x2="614" y2="752"/>
<line class="st6" x1="1650.6" y1="186.2" x2="1638.4" y2="446.8"/>
<line class="st7" x1="542.2" y1="143.5" x2="571" y2="229.8"/>
<line class="st6" x1="172.8" y1="707.2" x2="307" y2="796"/>
<line class="st6" x1="1744.4" y1="669.5" x2="1725.6" y2="850.5"/>
<rect x="1130.8" y="757.8" class="st8" width="282.2" height="45.2"/>
<text transform="matrix(1 0 0 1 1130.8271 783.3984)" class="st9 st10 st11">Internet of Things</text>
<rect x="1521.9" y="862.7" class="st8" width="375.1" height="30.8"/>
<text transform="matrix(1 0 0 1 1521.8779 888.2695)" class="st9 st10 st11">Backend development</text>
<rect x="269.8" y="815.9" class="st8" width="227.2" height="45.6"/>
<text transform="matrix(1 0 0 1 269.75 841.4268)" class="st9 st10 st11">Web scraping</text>
<rect x="830.8" y="50.4" class="st8" width="362.2" height="35.5"/>
<text transform="matrix(1 0 0 1 830.8062 75.9316)" class="st9 st10 st11">Front end development</text>
<rect x="350.8" y="74.8" class="st8" width="351" height="42"/>
<text transform="matrix(1 0 0 1 350.7583 100.332)" class="st9 st10 st11">Computer networks</text>
<rect x="1050.8" y="114.1" class="st8" width="192.2" height="27.6"/>
<text transform="matrix(1 0 0 1 1050.8369 139.627)" class="st9 st10 st11">Web design</text>
<rect x="536.8" y="770" class="st8" width="241.2" height="30.8"/>
<text transform="matrix(1 0 0 1 536.7769 795.5986)" class="st9 st10 st11">SQL &amp;  NoSQL</text>
<rect x="1562.9" y="92.8" class="st8" width="255" height="45"/>
<text transform="matrix(1 0 0 1 1562.8789 118.334)" class="st9 st10 st11">Data Structures</text>
</svg>
